# xmcd CD database file
#
# Track frame offsets:
#	150
#	8317
#	20012
#	31717
#	46200
#	66642
#	80062
#	95004
#	107780
#	129860
#	138162
#	155550
#	170567
#	182200
#	197165
#	213007
#	224745
#	236920
#
# Disc length: 3272 seconds
#
# Revision: 0
# Processed by: cddbd v1.4PL0 Copyright (c) Steve Scherf et al.
# Submitted via: CDex 1.50beta9
#
DISCID=fe0cc612
DTITLE=Barbara Lea - The Devil Is Afraid Of Music: Presenting the music of Willard Robison
DYEAR=1996
DGENRE=Jazz
TTITLE0=The Devil Is Afraid Of Music
TTITLE1=Don't Smoke In Bed
TTITLE2=Deep Summer
TTITLE3=Think Well Of Me
TTITLE4=Born To The Bayou
TTITLE5=Run For The Roundhouse, Nellie
TTITLE6=Guess I'll Go Back Home (This Summer)
TTITLE7=Lonely Acres
TTITLE8=Deep Elm, (You Tell 'Em I'm Blue)
TTITLE9=Peaceful Valley
TTITLE10=A Woman Alone With The Blues
TTITLE11=A Cottage For Sale
TTITLE12='Tain't So, Honey, 'Tain't So
TTITLE13=Old Folks
TTITLE14=Little High Chairman
TTITLE15=My Egotism Is Hurtin' Me
TTITLE16='Round My Old Deserted Farm
TTITLE17=The Devil Is Afraid Of Music (circa 1950)
EXTD=YEAR: 1996
EXTT0=
EXTT1=
EXTT2=
EXTT3=
EXTT4=
EXTT5=
EXTT6=
EXTT7=
EXTT8=
EXTT9=
EXTT10=
EXTT11=
EXTT12=
EXTT13=
EXTT14=
EXTT15=
EXTT16=
EXTT17=
PLAYORDER=
